<svg width="382" height="503" viewBox="0 0 382 503" fill="none" xmlns="http://www.w3.org/2000/svg">
<rect width="382" height="503" fill="#E5E5E5"/>
<g id="Component">
<g id="Component_2">
<g id="Rectangle 3" filter="url(#filter0_b)">
<path id="Rectangle 3_2" d="M233.444 102.075L222.804 96.6408L216.084 92.2932L209.924 86.0436L206.637 79.7939L198.723 20.0148H141.041H127.041H110.8H63.759L54.731 79.7939L51.4386 86.0436L45.8384 92.2932L39.1182 96.6408L30.1579 102.075H63.759H149.733H193.123H227.844H233.444Z" fill="#0C1034" fill-opacity="0.79"/>
</g>
<g id="Rectangle" filter="url(#filter1_b)">
<rect y="100.074" width="262.485" height="298.22" rx="28" fill="#0C1034" fill-opacity="0.79"/>
</g>
<rect id="Rectangle 2" x="12.2865" y="111.082" width="237.912" height="276.204" rx="21" fill="#0C1034" fill-opacity="0.92"/>
<g id="Ellipse 3">
<path id="Ellipse 3_2" d="M198.819 20.0148C198.819 8.96092 168.814 5.24521e-06 131.801 5.24521e-06C94.7884 5.24521e-06 63.6667 8.96092 63.6667 20.0148C87.4828 20.0148 89.7075 20.0148 131.801 20.0148C168.814 20.0148 178.326 20.0148 198.819 20.0148Z" fill="#0C1034" fill-opacity="0.79"/>
</g>
<g id="Rectangle 3_3" filter="url(#filter2_b)">
<path id="Rectangle 3_4" d="M30.2666 397.032L40.871 401.076L47.5674 404.309L53.7029 408.953L56.9724 413.592L64.791 457.937L122.314 458.014L136.276 458.032L152.472 458.054L199.384 458.117L208.461 413.794L211.752 409.164L217.345 404.536L224.052 401.321L232.994 397.303L199.486 397.258L113.748 397.143L70.4771 397.085L35.8514 397.039L30.2666 397.032Z" fill="#0C1034" fill-opacity="0.79"/>
</g>
<g id="Ellipse 3_3">
<path id="Ellipse 3_4" d="M64.8023 457.884C64.792 469.493 94.6799 478.926 131.559 478.952C168.438 478.979 199.455 469.589 199.466 457.98C175.736 457.963 173.519 457.961 131.577 457.932C94.6986 457.905 85.2212 457.899 64.8023 457.884Z" fill="#0C1034" fill-opacity="0.79"/>
</g>
<g id="Rectangle 4" filter="url(#filter3_b)">
<path id="Rectangle 4_2" d="M262.492 164.215L266.116 165.082L267.791 166.334L268.349 169.218V203.4L267.791 205.652L266.116 207.153L262.492 208.021V164.215Z" fill="#0C1034" fill-opacity="0.79"/>
</g>
<path id="Rectangle 5" d="M262.485 228.168L266.953 233.252V350.178L262.485 355.262V228.168Z" fill="#0C1034" fill-opacity="0.79"/>
<path id="MESSAGE 10:40" d="M39.6713 119.555L42.4604 126.516L45.2495 119.555H46.7085V128.086H45.5835V124.764L45.6889 121.178L42.8881 128.086H42.0268L39.2319 121.196L39.3432 124.764V128.086H38.2182V119.555H39.6713ZM53.517 124.143H49.8198V127.166H54.1147V128.086H48.6948V119.555H54.0561V120.481H49.8198V123.223H53.517V124.143ZM58.0288 124.284C57.0639 124.006 56.3608 123.666 55.9194 123.264C55.4819 122.858 55.2631 122.358 55.2631 121.764C55.2631 121.092 55.5307 120.538 56.0659 120.1C56.6049 119.659 57.3042 119.438 58.1635 119.438C58.7495 119.438 59.271 119.551 59.728 119.778C60.1889 120.004 60.5444 120.317 60.7944 120.715C61.0483 121.114 61.1752 121.549 61.1752 122.022H60.0444C60.0444 121.506 59.8803 121.102 59.5522 120.809C59.2241 120.512 58.7612 120.364 58.1635 120.364C57.6088 120.364 57.1752 120.487 56.8627 120.733C56.5542 120.975 56.3999 121.313 56.3999 121.747C56.3999 122.094 56.5463 122.389 56.8393 122.631C57.1362 122.87 57.6381 123.088 58.3452 123.288C59.0561 123.487 59.6108 123.707 60.0092 123.95C60.4116 124.188 60.7085 124.467 60.8999 124.788C61.0952 125.108 61.1928 125.485 61.1928 125.918C61.1928 126.61 60.9233 127.164 60.3842 127.582C59.8452 127.997 59.1245 128.204 58.2221 128.204C57.6362 128.204 57.0893 128.092 56.5815 127.87C56.0737 127.643 55.6811 127.334 55.4038 126.944C55.1303 126.553 54.9936 126.11 54.9936 125.614H56.1245C56.1245 126.129 56.3139 126.538 56.6928 126.838C57.0756 127.135 57.5854 127.284 58.2221 127.284C58.8159 127.284 59.271 127.163 59.5874 126.92C59.9038 126.678 60.062 126.348 60.062 125.93C60.062 125.512 59.9155 125.19 59.6225 124.963C59.3295 124.733 58.7983 124.506 58.0288 124.284ZM65.1538 124.284C64.1889 124.006 63.4858 123.666 63.0444 123.264C62.6069 122.858 62.3881 122.358 62.3881 121.764C62.3881 121.092 62.6557 120.538 63.1909 120.1C63.7299 119.659 64.4292 119.438 65.2885 119.438C65.8745 119.438 66.396 119.551 66.853 119.778C67.3139 120.004 67.6694 120.317 67.9194 120.715C68.1733 121.114 68.3002 121.549 68.3002 122.022H67.1694C67.1694 121.506 67.0053 121.102 66.6772 120.809C66.3491 120.512 65.8862 120.364 65.2885 120.364C64.7338 120.364 64.3002 120.487 63.9877 120.733C63.6792 120.975 63.5249 121.313 63.5249 121.747C63.5249 122.094 63.6713 122.389 63.9643 122.631C64.2612 122.87 64.7631 123.088 65.4702 123.288C66.1811 123.487 66.7358 123.707 67.1342 123.95C67.5366 124.188 67.8335 124.467 68.0249 124.788C68.2202 125.108 68.3178 125.485 68.3178 125.918C68.3178 126.61 68.0483 127.164 67.5092 127.582C66.9702 127.997 66.2495 128.204 65.3471 128.204C64.7612 128.204 64.2143 128.092 63.7065 127.87C63.1987 127.643 62.8061 127.334 62.5288 126.944C62.2553 126.553 62.1186 126.11 62.1186 125.614H63.2495C63.2495 126.129 63.4389 126.538 63.8178 126.838C64.2006 127.135 64.7104 127.284 65.3471 127.284C65.9409 127.284 66.396 127.163 66.7124 126.92C67.0288 126.678 67.187 126.348 67.187 125.93C67.187 125.512 67.0405 125.19 66.7475 124.963C66.4545 124.733 65.9233 124.506 65.1538 124.284ZM74.476 125.86H70.9018L70.0991 128.086H68.9389L72.1967 119.555H73.1811L76.4448 128.086H75.2905L74.476 125.86ZM71.2417 124.934H74.142L72.6889 120.944L71.2417 124.934ZM83.8217 126.967C83.5327 127.381 83.1284 127.692 82.6088 127.899C82.0932 128.102 81.4917 128.204 80.8042 128.204C80.1088 128.204 79.4917 128.041 78.9526 127.717C78.4135 127.389 77.9956 126.924 77.6987 126.323C77.4057 125.721 77.2553 125.024 77.2475 124.231V123.487C77.2475 122.202 77.5463 121.206 78.144 120.498C78.7456 119.791 79.5893 119.438 80.6752 119.438C81.5659 119.438 82.2827 119.666 82.8256 120.123C83.3686 120.577 83.7006 121.221 83.8217 122.057H82.6967C82.4858 120.928 81.8139 120.364 80.6811 120.364C79.9272 120.364 79.3549 120.629 78.9643 121.161C78.5776 121.688 78.3823 122.454 78.3784 123.457V124.155C78.3784 125.112 78.5971 125.873 79.0346 126.44C79.4721 127.002 80.0639 127.284 80.81 127.284C81.2319 127.284 81.601 127.237 81.9174 127.143C82.2338 127.049 82.4956 126.891 82.7026 126.668V124.752H80.728V123.838H83.8217V126.967ZM90.5249 124.143H86.8276V127.166H91.1225V128.086H85.7026V119.555H91.0639V120.481H86.8276V123.223H90.5249V124.143ZM182.124 128.086H181.035V120.862L178.849 121.664V120.68L181.955 119.514H182.124V128.086ZM190.65 124.448C190.65 125.717 190.433 126.661 189.999 127.278C189.566 127.895 188.888 128.204 187.966 128.204C187.056 128.204 186.382 127.903 185.945 127.301C185.507 126.696 185.281 125.793 185.265 124.594V123.147C185.265 121.893 185.482 120.961 185.915 120.352C186.349 119.743 187.029 119.438 187.955 119.438C188.873 119.438 189.548 119.733 189.982 120.323C190.415 120.909 190.638 121.815 190.65 123.041V124.448ZM189.566 122.965C189.566 122.047 189.437 121.379 189.179 120.961C188.921 120.539 188.513 120.329 187.955 120.329C187.4 120.329 186.996 120.538 186.742 120.956C186.488 121.373 186.357 122.016 186.349 122.883V124.618C186.349 125.539 186.482 126.221 186.748 126.663C187.017 127.1 187.423 127.319 187.966 127.319C188.501 127.319 188.898 127.112 189.156 126.698C189.417 126.284 189.554 125.631 189.566 124.741V122.965ZM192.115 127.518C192.115 127.331 192.169 127.174 192.279 127.049C192.392 126.924 192.56 126.862 192.783 126.862C193.005 126.862 193.173 126.924 193.287 127.049C193.404 127.174 193.462 127.331 193.462 127.518C193.462 127.698 193.404 127.848 193.287 127.969C193.173 128.09 193.005 128.151 192.783 128.151C192.56 128.151 192.392 128.09 192.279 127.969C192.169 127.848 192.115 127.698 192.115 127.518ZM192.121 122.344C192.121 122.157 192.175 122 192.285 121.875C192.398 121.75 192.566 121.688 192.789 121.688C193.011 121.688 193.179 121.75 193.292 121.875C193.41 122 193.468 122.157 193.468 122.344C193.468 122.524 193.41 122.674 193.292 122.795C193.179 122.916 193.011 122.977 192.789 122.977C192.566 122.977 192.398 122.916 192.285 122.795C192.175 122.674 192.121 122.524 192.121 122.344ZM199.521 125.221H200.705V126.106H199.521V128.086H198.431V126.106H194.546V125.467L198.367 119.555H199.521V125.221ZM195.777 125.221H198.431V121.038L198.302 121.272L195.777 125.221ZM207.033 124.448C207.033 125.717 206.816 126.661 206.382 127.278C205.949 127.895 205.271 128.204 204.349 128.204C203.439 128.204 202.765 127.903 202.328 127.301C201.89 126.696 201.664 125.793 201.648 124.594V123.147C201.648 121.893 201.865 120.961 202.298 120.352C202.732 119.743 203.412 119.438 204.337 119.438C205.255 119.438 205.931 119.733 206.365 120.323C206.798 120.909 207.021 121.815 207.033 123.041V124.448ZM205.949 122.965C205.949 122.047 205.82 121.379 205.562 120.961C205.304 120.539 204.896 120.329 204.337 120.329C203.783 120.329 203.378 120.538 203.124 120.956C202.871 121.373 202.74 122.016 202.732 122.883V124.618C202.732 125.539 202.865 126.221 203.13 126.663C203.4 127.1 203.806 127.319 204.349 127.319C204.884 127.319 205.281 127.112 205.539 126.698C205.8 126.284 205.937 125.631 205.949 124.741V122.965Z" fill="#06F8F8"/>
</g>
</g>
<ellipse id="Ellipse 2" cx="53" cy="167.5" rx="13" ry="13.5" fill="#FF7E7E"/>
<ellipse id="Ellipse 3_5" cx="53" cy="219" rx="13" ry="14" fill="#7AFF97"/>
<path id="| MSG 1... from AKASH" d="M75.75 179.164H74.0039V158.938H75.75V179.164ZM92.5693 166.047L95.8232 174.168L99.0771 166.047H100.779V176H99.4668V172.124L99.5898 167.94L96.3223 176H95.3174L92.0566 167.961L92.1865 172.124V176H90.874V166.047H92.5693ZM106.029 171.563C104.904 171.24 104.083 170.843 103.568 170.374C103.058 169.9 102.803 169.317 102.803 168.624C102.803 167.84 103.115 167.193 103.739 166.683C104.368 166.168 105.184 165.91 106.187 165.91C106.87 165.91 107.479 166.042 108.012 166.307C108.549 166.571 108.964 166.936 109.256 167.4C109.552 167.865 109.7 168.373 109.7 168.925H108.381C108.381 168.323 108.189 167.852 107.807 167.51C107.424 167.163 106.884 166.99 106.187 166.99C105.539 166.99 105.034 167.134 104.669 167.421C104.309 167.703 104.129 168.098 104.129 168.604C104.129 169.009 104.3 169.353 104.642 169.636C104.988 169.914 105.574 170.169 106.398 170.401C107.228 170.634 107.875 170.891 108.34 171.174C108.809 171.452 109.156 171.778 109.379 172.151C109.607 172.525 109.721 172.965 109.721 173.471C109.721 174.277 109.406 174.924 108.777 175.412C108.148 175.895 107.308 176.137 106.255 176.137C105.571 176.137 104.933 176.007 104.341 175.747C103.748 175.483 103.29 175.123 102.967 174.667C102.648 174.211 102.488 173.694 102.488 173.115H103.808C103.808 173.717 104.029 174.193 104.471 174.544C104.917 174.89 105.512 175.063 106.255 175.063C106.948 175.063 107.479 174.922 107.848 174.64C108.217 174.357 108.401 173.972 108.401 173.484C108.401 172.997 108.23 172.621 107.889 172.356C107.547 172.088 106.927 171.823 106.029 171.563ZM118.758 174.694C118.421 175.177 117.949 175.54 117.343 175.781C116.741 176.018 116.039 176.137 115.237 176.137C114.426 176.137 113.706 175.948 113.077 175.569C112.448 175.187 111.961 174.644 111.614 173.942C111.272 173.241 111.097 172.427 111.088 171.502V170.634C111.088 169.134 111.437 167.972 112.134 167.147C112.836 166.323 113.82 165.91 115.087 165.91C116.126 165.91 116.962 166.177 117.596 166.71C118.229 167.239 118.617 167.991 118.758 168.966H117.445C117.199 167.649 116.415 166.99 115.094 166.99C114.214 166.99 113.547 167.3 113.091 167.92C112.64 168.535 112.412 169.428 112.407 170.6V171.413C112.407 172.53 112.662 173.418 113.173 174.079C113.683 174.735 114.374 175.063 115.244 175.063C115.736 175.063 116.167 175.009 116.536 174.899C116.905 174.79 117.211 174.605 117.452 174.346V172.11H115.148V171.044H118.758V174.694ZM128.253 176H126.981V167.571L124.432 168.508V167.359L128.055 165.999H128.253V176ZM132.115 175.337C132.115 175.118 132.179 174.936 132.307 174.79C132.439 174.644 132.635 174.571 132.895 174.571C133.154 174.571 133.35 174.644 133.482 174.79C133.619 174.936 133.688 175.118 133.688 175.337C133.688 175.547 133.619 175.722 133.482 175.863C133.35 176.005 133.154 176.075 132.895 176.075C132.635 176.075 132.439 176.005 132.307 175.863C132.179 175.722 132.115 175.547 132.115 175.337ZM135.807 175.337C135.807 175.118 135.87 174.936 135.998 174.79C136.13 174.644 136.326 174.571 136.586 174.571C136.846 174.571 137.042 174.644 137.174 174.79C137.311 174.936 137.379 175.118 137.379 175.337C137.379 175.547 137.311 175.722 137.174 175.863C137.042 176.005 136.846 176.075 136.586 176.075C136.326 176.075 136.13 176.005 135.998 175.863C135.87 175.722 135.807 175.547 135.807 175.337ZM139.498 175.337C139.498 175.118 139.562 174.936 139.689 174.79C139.822 174.644 140.018 174.571 140.277 174.571C140.537 174.571 140.733 174.644 140.865 174.79C141.002 174.936 141.07 175.118 141.07 175.337C141.07 175.547 141.002 175.722 140.865 175.863C140.733 176.005 140.537 176.075 140.277 176.075C140.018 176.075 139.822 176.005 139.689 175.863C139.562 175.722 139.498 175.547 139.498 175.337ZM147.257 176V169.581H146.088V168.604H147.257V167.845C147.257 167.052 147.469 166.439 147.893 166.006C148.316 165.573 148.916 165.356 149.69 165.356C149.982 165.356 150.271 165.395 150.559 165.473L150.49 166.498C150.276 166.457 150.048 166.437 149.807 166.437C149.396 166.437 149.08 166.557 148.856 166.799C148.633 167.036 148.521 167.378 148.521 167.824V168.604H150.101V169.581H148.521V176H147.257ZM155.077 169.738C154.886 169.706 154.678 169.69 154.455 169.69C153.626 169.69 153.063 170.044 152.767 170.75V176H151.502V168.604H152.732L152.753 169.458C153.168 168.797 153.756 168.467 154.517 168.467C154.763 168.467 154.95 168.499 155.077 168.562V169.738ZM155.774 172.233C155.774 171.509 155.916 170.857 156.198 170.278C156.485 169.7 156.882 169.253 157.388 168.938C157.898 168.624 158.479 168.467 159.131 168.467C160.138 168.467 160.951 168.815 161.571 169.513C162.196 170.21 162.508 171.137 162.508 172.295V172.384C162.508 173.104 162.369 173.751 162.091 174.325C161.817 174.895 161.423 175.339 160.908 175.658C160.398 175.977 159.81 176.137 159.145 176.137C158.142 176.137 157.328 175.788 156.704 175.091C156.084 174.394 155.774 173.471 155.774 172.322V172.233ZM157.046 172.384C157.046 173.204 157.235 173.863 157.613 174.359C157.996 174.856 158.507 175.104 159.145 175.104C159.787 175.104 160.298 174.854 160.676 174.353C161.054 173.847 161.243 173.14 161.243 172.233C161.243 171.422 161.049 170.766 160.662 170.265C160.279 169.759 159.769 169.506 159.131 169.506C158.507 169.506 158.003 169.754 157.62 170.251C157.237 170.748 157.046 171.459 157.046 172.384ZM165.283 168.604L165.317 169.424C165.86 168.786 166.591 168.467 167.512 168.467C168.546 168.467 169.25 168.863 169.624 169.656C169.87 169.301 170.189 169.014 170.581 168.795C170.978 168.576 171.445 168.467 171.982 168.467C173.605 168.467 174.43 169.326 174.457 171.044V176H173.192V171.119C173.192 170.59 173.072 170.196 172.83 169.937C172.589 169.672 172.183 169.54 171.613 169.54C171.144 169.54 170.754 169.681 170.444 169.964C170.134 170.242 169.954 170.618 169.904 171.092V176H168.633V171.153C168.633 170.078 168.106 169.54 167.054 169.54C166.224 169.54 165.657 169.893 165.352 170.6V176H164.087V168.604H165.283ZM185.538 173.402H181.368L180.432 176H179.078L182.879 166.047H184.027L187.835 176H186.488L185.538 173.402ZM181.765 172.322H185.148L183.453 167.667L181.765 172.322ZM191.704 171.372L190.487 172.637V176H189.175V166.047H190.487V170.969L194.91 166.047H196.496L192.579 170.442L196.804 176H195.231L191.704 171.372ZM203.448 173.402H199.278L198.342 176H196.988L200.789 166.047H201.938L205.745 176H204.398L203.448 173.402ZM199.675 172.322H203.059L201.363 167.667L199.675 172.322ZM210.018 171.563C208.892 171.24 208.072 170.843 207.557 170.374C207.046 169.9 206.791 169.317 206.791 168.624C206.791 167.84 207.103 167.193 207.728 166.683C208.356 166.168 209.172 165.91 210.175 165.91C210.858 165.91 211.467 166.042 212 166.307C212.538 166.571 212.952 166.936 213.244 167.4C213.54 167.865 213.688 168.373 213.688 168.925H212.369C212.369 168.323 212.178 167.852 211.795 167.51C211.412 167.163 210.872 166.99 210.175 166.99C209.528 166.99 209.022 167.134 208.657 167.421C208.297 167.703 208.117 168.098 208.117 168.604C208.117 169.009 208.288 169.353 208.63 169.636C208.976 169.914 209.562 170.169 210.387 170.401C211.216 170.634 211.863 170.891 212.328 171.174C212.798 171.452 213.144 171.778 213.367 172.151C213.595 172.525 213.709 172.965 213.709 173.471C213.709 174.277 213.395 174.924 212.766 175.412C212.137 175.895 211.296 176.137 210.243 176.137C209.56 176.137 208.922 176.007 208.329 175.747C207.737 175.483 207.279 175.123 206.955 174.667C206.636 174.211 206.477 173.694 206.477 173.115H207.796C207.796 173.717 208.017 174.193 208.459 174.544C208.906 174.89 209.5 175.063 210.243 175.063C210.936 175.063 211.467 174.922 211.836 174.64C212.205 174.357 212.39 173.972 212.39 173.484C212.39 172.997 212.219 172.621 211.877 172.356C211.535 172.088 210.915 171.823 210.018 171.563ZM223.047 176H221.728V171.399H216.71V176H215.397V166.047H216.71V170.326H221.728V166.047H223.047V176Z" fill="white"/>
<path id="| MSG 2... from B" d="M77.7969 230.164H76.0508V209.938H77.7969V230.164ZM95.4307 214.203L99.6143 224.645L103.798 214.203H105.986V227H104.299V222.017L104.457 216.638L100.256 227H98.9639L94.7715 216.664L94.9385 222.017V227H93.251V214.203H95.4307ZM112.736 221.296C111.289 220.88 110.234 220.37 109.572 219.767C108.916 219.157 108.588 218.407 108.588 217.517C108.588 216.509 108.989 215.677 109.792 215.021C110.601 214.358 111.649 214.027 112.938 214.027C113.817 214.027 114.6 214.197 115.285 214.537C115.977 214.877 116.51 215.346 116.885 215.943C117.266 216.541 117.456 217.194 117.456 217.903H115.76C115.76 217.13 115.514 216.523 115.021 216.084C114.529 215.639 113.835 215.416 112.938 215.416C112.106 215.416 111.456 215.601 110.987 215.97C110.524 216.333 110.293 216.84 110.293 217.49C110.293 218.012 110.513 218.454 110.952 218.817C111.397 219.175 112.15 219.503 113.211 219.802C114.277 220.101 115.109 220.432 115.707 220.795C116.311 221.152 116.756 221.571 117.043 222.052C117.336 222.532 117.482 223.098 117.482 223.748C117.482 224.785 117.078 225.617 116.27 226.244C115.461 226.865 114.38 227.176 113.026 227.176C112.147 227.176 111.327 227.009 110.565 226.675C109.804 226.335 109.215 225.872 108.799 225.286C108.389 224.7 108.184 224.035 108.184 223.291H109.88C109.88 224.064 110.164 224.677 110.732 225.128C111.307 225.573 112.071 225.796 113.026 225.796C113.917 225.796 114.6 225.614 115.074 225.251C115.549 224.888 115.786 224.393 115.786 223.766C115.786 223.139 115.566 222.655 115.127 222.315C114.688 221.97 113.891 221.63 112.736 221.296ZM129.102 225.321C128.668 225.942 128.062 226.408 127.282 226.719C126.509 227.023 125.606 227.176 124.575 227.176C123.532 227.176 122.606 226.933 121.798 226.446C120.989 225.954 120.362 225.257 119.917 224.354C119.478 223.452 119.252 222.406 119.24 221.217V220.101C119.24 218.173 119.688 216.679 120.585 215.618C121.487 214.558 122.753 214.027 124.382 214.027C125.718 214.027 126.793 214.37 127.607 215.056C128.422 215.735 128.92 216.702 129.102 217.956H127.414C127.098 216.263 126.09 215.416 124.391 215.416C123.26 215.416 122.401 215.814 121.815 216.611C121.235 217.402 120.942 218.551 120.937 220.057V221.103C120.937 222.538 121.265 223.681 121.921 224.53C122.577 225.374 123.465 225.796 124.584 225.796C125.217 225.796 125.771 225.726 126.245 225.585C126.72 225.444 127.112 225.207 127.423 224.873V221.999H124.461V220.628H129.102V225.321ZM144.351 227H135.966V225.831L140.396 220.909C141.052 220.165 141.503 219.562 141.749 219.099C142.001 218.63 142.127 218.146 142.127 217.648C142.127 216.98 141.925 216.433 141.521 216.005C141.116 215.577 140.577 215.363 139.903 215.363C139.095 215.363 138.465 215.595 138.014 216.058C137.568 216.515 137.346 217.153 137.346 217.974H135.72C135.72 216.796 136.098 215.844 136.854 215.117C137.615 214.391 138.632 214.027 139.903 214.027C141.093 214.027 142.033 214.341 142.725 214.968C143.416 215.589 143.762 216.418 143.762 217.455C143.762 218.715 142.959 220.215 141.354 221.955L137.926 225.673H144.351V227ZM146.275 226.147C146.275 225.866 146.357 225.632 146.521 225.444C146.691 225.257 146.943 225.163 147.277 225.163C147.611 225.163 147.863 225.257 148.033 225.444C148.209 225.632 148.297 225.866 148.297 226.147C148.297 226.417 148.209 226.643 148.033 226.824C147.863 227.006 147.611 227.097 147.277 227.097C146.943 227.097 146.691 227.006 146.521 226.824C146.357 226.643 146.275 226.417 146.275 226.147ZM151.021 226.147C151.021 225.866 151.104 225.632 151.268 225.444C151.438 225.257 151.689 225.163 152.023 225.163C152.357 225.163 152.609 225.257 152.779 225.444C152.955 225.632 153.043 225.866 153.043 226.147C153.043 226.417 152.955 226.643 152.779 226.824C152.609 227.006 152.357 227.097 152.023 227.097C151.689 227.097 151.438 227.006 151.268 226.824C151.104 226.643 151.021 226.417 151.021 226.147ZM155.768 226.147C155.768 225.866 155.85 225.632 156.014 225.444C156.184 225.257 156.436 225.163 156.77 225.163C157.104 225.163 157.355 225.257 157.525 225.444C157.701 225.632 157.789 225.866 157.789 226.147C157.789 226.417 157.701 226.643 157.525 226.824C157.355 227.006 157.104 227.097 156.77 227.097C156.436 227.097 156.184 227.006 156.014 226.824C155.85 226.643 155.768 226.417 155.768 226.147ZM165.743 227V218.747H164.24V217.49H165.743V216.515C165.743 215.495 166.016 214.707 166.561 214.15C167.105 213.594 167.876 213.315 168.872 213.315C169.247 213.315 169.619 213.365 169.988 213.465L169.9 214.783C169.625 214.73 169.332 214.704 169.021 214.704C168.494 214.704 168.087 214.859 167.8 215.17C167.513 215.475 167.369 215.914 167.369 216.488V217.49H169.399V218.747H167.369V227H165.743ZM175.798 218.949C175.552 218.908 175.285 218.888 174.998 218.888C173.932 218.888 173.208 219.342 172.827 220.25V227H171.201V217.49H172.783L172.81 218.589C173.343 217.739 174.099 217.314 175.077 217.314C175.394 217.314 175.634 217.355 175.798 217.438V218.949ZM176.694 222.157C176.694 221.226 176.876 220.388 177.239 219.644C177.608 218.899 178.118 218.325 178.769 217.921C179.425 217.517 180.172 217.314 181.01 217.314C182.305 217.314 183.351 217.763 184.147 218.659C184.95 219.556 185.352 220.748 185.352 222.236V222.351C185.352 223.276 185.173 224.108 184.815 224.847C184.464 225.579 183.957 226.15 183.295 226.561C182.639 226.971 181.883 227.176 181.027 227.176C179.738 227.176 178.692 226.728 177.89 225.831C177.093 224.935 176.694 223.748 176.694 222.271V222.157ZM178.329 222.351C178.329 223.405 178.572 224.252 179.059 224.891C179.551 225.529 180.207 225.849 181.027 225.849C181.854 225.849 182.51 225.526 182.996 224.882C183.482 224.231 183.726 223.323 183.726 222.157C183.726 221.114 183.477 220.271 182.979 219.626C182.486 218.976 181.83 218.65 181.01 218.65C180.207 218.65 179.56 218.97 179.067 219.608C178.575 220.247 178.329 221.161 178.329 222.351ZM188.92 217.49L188.964 218.545C189.661 217.725 190.602 217.314 191.785 217.314C193.115 217.314 194.021 217.824 194.501 218.844C194.817 218.387 195.228 218.018 195.731 217.736C196.241 217.455 196.842 217.314 197.533 217.314C199.619 217.314 200.68 218.419 200.715 220.628V227H199.089V220.725C199.089 220.045 198.934 219.538 198.623 219.204C198.312 218.864 197.791 218.694 197.059 218.694C196.455 218.694 195.954 218.876 195.556 219.239C195.157 219.597 194.926 220.08 194.861 220.689V227H193.227V220.769C193.227 219.386 192.55 218.694 191.196 218.694C190.13 218.694 189.4 219.148 189.008 220.057V227H187.382V217.49H188.92ZM207.896 227V214.203H212.079C213.468 214.203 214.511 214.49 215.208 215.064C215.911 215.639 216.263 216.488 216.263 217.613C216.263 218.211 216.093 218.741 215.753 219.204C215.413 219.661 214.95 220.016 214.364 220.268C215.056 220.461 215.601 220.83 215.999 221.375C216.403 221.914 216.605 222.559 216.605 223.309C216.605 224.457 216.233 225.359 215.489 226.016C214.745 226.672 213.693 227 212.334 227H207.896ZM209.583 221.015V225.62H212.369C213.154 225.62 213.772 225.418 214.224 225.014C214.681 224.604 214.909 224.041 214.909 223.326C214.909 221.785 214.071 221.015 212.396 221.015H209.583ZM209.583 219.661H212.132C212.87 219.661 213.459 219.477 213.898 219.107C214.344 218.738 214.566 218.237 214.566 217.604C214.566 216.901 214.361 216.392 213.951 216.075C213.541 215.753 212.917 215.592 212.079 215.592H209.583V219.661Z" fill="white"/>
<path id="A" d="M52.6777 168.773H49.1035L48.3008 171H47.1406L50.3984 162.469H51.3828L54.6465 171H53.4922L52.6777 168.773ZM49.4434 167.848H52.3438L50.8906 163.857L49.4434 167.848Z" fill="white"/>
<path id="B" d="M47.9668 223V214.469H50.7559C51.6816 214.469 52.377 214.66 52.8418 215.043C53.3105 215.426 53.5449 215.992 53.5449 216.742C53.5449 217.141 53.4316 217.494 53.2051 217.803C52.9785 218.107 52.6699 218.344 52.2793 218.512C52.7402 218.641 53.1035 218.887 53.3691 219.25C53.6387 219.609 53.7734 220.039 53.7734 220.539C53.7734 221.305 53.5254 221.906 53.0293 222.344C52.5332 222.781 51.832 223 50.9258 223H47.9668ZM49.0918 219.01V222.08H50.9492C51.4727 222.08 51.8848 221.945 52.1855 221.676C52.4902 221.402 52.6426 221.027 52.6426 220.551C52.6426 219.523 52.084 219.01 50.9668 219.01H49.0918ZM49.0918 218.107H50.791C51.2832 218.107 51.6758 217.984 51.9688 217.738C52.2656 217.492 52.4141 217.158 52.4141 216.736C52.4141 216.268 52.2773 215.928 52.0039 215.717C51.7305 215.502 51.3145 215.395 50.7559 215.395H49.0918V218.107Z" fill="white"/>
<g id="Component 3">
<g id="Ellipse 4">
<path id="Ellipse 4_2" d="M97.6667 433.724C97.6667 440.198 92.9657 445.447 87.1667 445.447C81.3677 445.447 76.6667 440.198 76.6667 433.724C76.6667 427.249 81.3677 422 87.1667 422C92.9657 422 97.6667 427.249 97.6667 433.724Z" fill="#06F5E7"/>
</g>
<path id="Vector" d="M92.1076 436.821C92.6646 436.176 92.9987 435.368 92.9987 434.485C92.9987 432.582 91.4494 431.009 89.4303 430.729C88.7924 429.358 87.2937 428.395 85.5459 428.395C83.219 428.395 81.3335 430.098 81.3335 432.201C81.3335 433.081 81.6676 433.89 82.2246 434.537C81.9147 435.268 81.4692 435.834 81.4611 435.843C81.3335 436.003 81.297 436.236 81.372 436.438C81.4449 436.64 81.615 436.771 81.8013 436.771C82.8848 436.771 83.7597 436.291 84.3369 435.848C84.5232 435.898 84.7156 435.936 84.912 435.965C85.548 437.33 87.0405 438.291 88.7863 438.291C89.2075 438.291 89.6126 438.234 89.9974 438.13C90.5746 438.57 91.4474 439.053 92.5329 439.053C92.7193 439.053 92.8874 438.922 92.9623 438.72C93.0352 438.517 93.0008 438.284 92.8732 438.125C92.8651 438.118 92.4175 437.551 92.1076 436.821V436.821ZM84.1526 434.625L83.8063 434.889C83.5207 435.106 83.2291 435.277 82.9334 435.398C82.9881 435.287 83.0428 435.168 83.0954 435.046L83.4093 434.307L82.9071 433.724C82.6337 433.405 82.3056 432.884 82.3056 432.201C82.3056 430.757 83.7901 429.537 85.5459 429.537C87.3018 429.537 88.7863 430.757 88.7863 432.201C88.7863 433.645 87.3018 434.866 85.5459 434.866C85.2118 434.866 84.8776 434.82 84.5536 434.732L84.1526 434.625ZM91.4251 436.008L90.9249 436.588L91.2388 437.328C91.2915 437.449 91.3462 437.568 91.4008 437.68C91.1052 437.559 90.8135 437.387 90.528 437.171L90.1817 436.907L89.7786 437.016C89.4546 437.104 89.1204 437.149 88.7863 437.149C87.6927 437.149 86.7165 436.671 86.1272 435.967C88.1787 435.71 89.7584 434.126 89.7584 432.201C89.7584 432.12 89.7503 432.042 89.7442 431.963C91.0485 432.308 92.0266 433.314 92.0266 434.485C92.0266 435.168 91.6985 435.689 91.4251 436.008Z" fill="#F8F3F3"/>
</g>
<g id="Component 6">
<g id="Component 21">
<g id="Component 21_2">
<ellipse id="Ellipse 5" cx="128" cy="432.5" rx="14" ry="10.5" fill="#44446B"/>
</g>
</g>
<path id="Vector_2" d="M134.066 426.423C134.066 425.834 133.547 425.418 133.043 425.595L125.168 428.159C124.841 428.273 124.617 428.607 124.617 428.986V436.08C124.369 436.015 124.107 435.973 123.829 435.973C122.524 435.973 121.467 436.751 121.467 437.71C121.467 438.669 122.524 439.446 123.829 439.446C125.134 439.446 126.192 438.669 126.192 437.71V431.369L132.492 429.333V434.343C132.244 434.279 131.982 434.237 131.704 434.237C130.399 434.237 129.342 435.014 129.342 435.973C129.342 436.932 130.399 437.71 131.704 437.71C133.009 437.71 134.067 436.932 134.067 435.973L134.066 426.423V426.423Z" fill="white"/>
</g>
<g id="Component 7">
<g id="Component 24">
<g id="Component 21_3">
<ellipse id="Ellipse 5_2" cx="176" cy="432.5" rx="15" ry="13.5" fill="#44446B"/>
</g>
</g>
<path id="Vector_3" d="M184.376 434.267C184.376 438.116 180.714 441.235 176.194 441.235C171.675 441.235 168.013 438.116 168.013 434.267C168.013 430.783 171.014 427.895 174.936 427.382V426.226H173.834C173.575 426.226 173.362 426.046 173.362 425.824V424.484C173.362 424.263 173.575 424.082 173.834 424.082H178.554C178.814 424.082 179.026 424.263 179.026 424.484V425.824C179.026 426.046 178.814 426.226 178.554 426.226H177.453V427.382C178.928 427.577 180.273 428.106 181.375 428.876L182.456 427.955C182.641 427.798 182.94 427.798 183.125 427.955L184.238 428.903C184.423 429.061 184.423 429.315 184.238 429.473L183.082 430.458L183.058 430.478C183.892 431.563 184.376 432.867 184.376 434.267ZM177.453 435.473V430.397C177.453 430.176 177.241 429.995 176.981 429.995H175.408C175.148 429.995 174.936 430.176 174.936 430.397V435.473C174.936 435.694 175.148 435.875 175.408 435.875H176.981C177.241 435.875 177.453 435.694 177.453 435.473Z" fill="white"/>
</g>
<defs>
<filter id="filter0_b" x="26.1579" y="10.0103" width="211.287" height="96.065" filterUnits="userSpaceOnUse" color-interpolation-filters="sRGB">
<feFlood flood-opacity="0" result="BackgroundImageFix"/>
<feGaussianBlur in="BackgroundImage" stdDeviation="2"/>
<feComposite in2="SourceAlpha" operator="in" result="effect1_backgroundBlur"/>
<feBlend mode="normal" in="SourceGraphic" in2="effect1_backgroundBlur" result="shape"/>
</filter>
<filter id="filter1_b" x="-4" y="96.0738" width="270.485" height="306.22" filterUnits="userSpaceOnUse" color-interpolation-filters="sRGB">
<feFlood flood-opacity="0" result="BackgroundImageFix"/>
<feGaussianBlur in="BackgroundImage" stdDeviation="2"/>
<feComposite in2="SourceAlpha" operator="in" result="effect1_backgroundBlur"/>
<feBlend mode="normal" in="SourceGraphic" in2="effect1_backgroundBlur" result="shape"/>
</filter>
<filter id="filter2_b" x="26.1579" y="393.032" width="210.837" height="73.5827" filterUnits="userSpaceOnUse" color-interpolation-filters="sRGB">
<feFlood flood-opacity="0" result="BackgroundImageFix"/>
<feGaussianBlur in="BackgroundImage" stdDeviation="2"/>
<feComposite in2="SourceAlpha" operator="in" result="effect1_backgroundBlur"/>
<feBlend mode="normal" in="SourceGraphic" in2="effect1_backgroundBlur" result="shape"/>
</filter>
<filter id="filter3_b" x="251.784" y="160.215" width="134.216" height="92.9692" filterUnits="userSpaceOnUse" color-interpolation-filters="sRGB">
<feFlood flood-opacity="0" result="BackgroundImageFix"/>
<feGaussianBlur in="BackgroundImage" stdDeviation="2"/>
<feComposite in2="SourceAlpha" operator="in" result="effect1_backgroundBlur"/>
<feBlend mode="normal" in="SourceGraphic" in2="effect1_backgroundBlur" result="shape"/>
</filter>
</defs>
</svg>
